<svg width="24" height="24" viewBox="0 0 24 24" fill="none" xmlns="http://www.w3.org/2000/svg">
<rect width="24" height="24" fill="#E5E5E5"/>
<g id="Register - Desktop" clip-path="url(#clip0_0_1)">
<rect width="1440" height="900" transform="translate(-999 -380)" fill="white"/>
<g id="Right Content">
<g id="Title">
</g>
<g id="Frame 3">
<g id="Email">
<rect x="-25.5" y="-17.5" width="306" height="59" rx="29.5" fill="white"/>
<g id="Placeholder">
<g id="bx:bxs-user" opacity="0.3">
<path id="Vector" d="M7.5 6.5C7.5 8.981 9.519 11 12 11C14.481 11 16.5 8.981 16.5 6.5C16.5 4.019 14.481 2 12 2C9.519 2 7.5 4.019 7.5 6.5ZM20 21H21V20C21 16.141 17.859 13 14 13H10C6.14 13 3 16.141 3 20V21H20Z" fill="#333333"/>
</g>
</g>
<rect x="-25.5" y="-17.5" width="306" height="59" rx="29.5" stroke="#EEEEEE"/>
</g>
</g>
</g>
</g>
<defs>
<clipPath id="clip0_0_1">
<rect width="1440" height="900" fill="white" transform="translate(-999 -380)"/>
</clipPath>
</defs>
</svg>
